<svg xmlns="http://www.w3.org/2000/svg" viewBox="0 0 244.2 244.22"><defs><style>.cls-1{fill:#6e6464;}</style></defs><title>Режим изоляции</title><g id="Слой_2" data-name="Слой 2"><g id="Режим_изоляции" data-name="Режим изоляции"><path class="cls-1" d="M244.18,6.28C244.19,1.57,243,0,238.07,0Q122.1.21,6.15,0C1.27,0,0,1.51,0,6.26Q.21,122,0,237.67c0,5,1.19,6.58,6.38,6.55,38.48-.21,77-.11,115.45-.11,38.66,0,77.31-.1,116,.11,5.15,0,6.41-1.55,6.41-6.53Q244,122,244.18,6.28Zm-122,58.12a28.71,28.71,0,0,1,29.16,29c.05,16.48-12.53,29.34-28.77,29.42a29.23,29.23,0,1,1-.39-58.45Zm58.17,75.26c-.33,9.3-.23,18.63-.05,28,.05,3.06-.48,4.39-4,4.38q-54.15-.19-108.32,0c-3.24,0-3.85-1.17-3.8-4.06.15-9.65.2-19.31,0-28.95-.07-3.26,1.13-3.82,4-3.8,18,.11,35.94.06,53.91.06,17.81,0,35.61.09,53.41-.07C179,135.12,180.44,135.65,180.3,139.66Z"/></g></g></svg>