<svg id="Режим_изоляции" data-name="Режим изоляции" xmlns="http://www.w3.org/2000/svg" viewBox="0 0 3.58 3.33"><defs><style>.cls-1{fill:#a49897;}</style></defs><title>Монтажная область 1</title><path class="cls-1" d="M2.79,1.85a.13.13,0,0,1,.13-.14.14.14,0,0,1,.14.14V3.19a.14.14,0,0,1-.14.14H.65a.13.13,0,0,1-.13-.14h0V1.85a.13.13,0,0,1,.13-.14.14.14,0,0,1,.14.14V3.06h.44V1.7a.08.08,0,0,1,.09-.08h.94a.07.07,0,0,1,.08.08h0V3.06h.45V1.85ZM1.4,3.06h.78V1.78H1.4V3.06ZM.23,1.88h0L1.79.33,3.34,1.88a.13.13,0,0,0,.2,0,.14.14,0,0,0,0-.19L1.89,0h0a.15.15,0,0,0-.2,0L0,1.69a.14.14,0,0,0,0,.19.12.12,0,0,0,.19,0Z"/></svg>