<svg xmlns="http://www.w3.org/2000/svg" viewBox="0 0 3.58 3.58"><defs><style>.cls-1{fill:#6d6e71;}</style></defs><title>Режим изоляции</title><g id="Слой_2" data-name="Слой 2"><g id="Режим_изоляции" data-name="Режим изоляции"><path class="cls-1" d="M2.61.28A.14.14,0,0,1,2.48.14.13.13,0,0,1,2.61,0h.83a.14.14,0,0,1,.14.14h0V1a.14.14,0,0,1-.14.14A.14.14,0,0,1,3.3,1V.28ZM3.3,2.61h0a.13.13,0,0,1,.14-.13.14.14,0,0,1,.14.13v.83a.14.14,0,0,1-.14.14H2.61a.14.14,0,0,1,0-.28H3.3V2.61ZM1,3.3H1a.14.14,0,1,1,0,.28H.14A.14.14,0,0,1,0,3.44H0V2.61a.13.13,0,0,1,.14-.13.13.13,0,0,1,.13.13V3.3ZM.27,1h0a.13.13,0,0,1-.13.14A.14.14,0,0,1,0,1V.14A.14.14,0,0,1,.14,0H1A.14.14,0,0,1,1.1.14.14.14,0,0,1,1,.28H.27V1Z"/></g></g></svg>