<svg xmlns="http://www.w3.org/2000/svg" viewBox="0 0 3.42 3.47"><defs><style>.cls-1{fill:#6d6e71;}</style></defs><title>Режим изоляции</title><g id="Слой_2" data-name="Слой 2"><g id="Режим_изоляции" data-name="Режим изоляции"><path class="cls-1" d="M.08,0H.91A.09.09,0,0,1,1,.08H1V.91A.09.09,0,0,1,.91,1H.08A.09.09,0,0,1,0,.91H0V.08A.09.09,0,0,1,.08,0ZM1.29,2.47h.83a.09.09,0,0,1,.09.08h0v.83a.09.09,0,0,1-.09.08H1.29a.09.09,0,0,1-.08-.08h0V2.55a.09.09,0,0,1,.08-.08ZM2,2.64H1.38V3.3H2V2.64Zm-2-.17H.91A.09.09,0,0,1,1,2.55H1v.83a.09.09,0,0,1-.09.08H.08A.09.09,0,0,1,0,3.39H0V2.55a.09.09,0,0,1,.08-.08Zm.75.17H.17V3.3H.83V2.64ZM2.5,1.24h.83a.08.08,0,0,1,.09.08h0v.83a.09.09,0,0,1-.09.08H2.5a.09.09,0,0,1-.08-.08h0V1.32a.08.08,0,0,1,.08-.08Zm.75.16H2.59v.67h.66V1.4Zm-2-.16h.83a.08.08,0,0,1,.09.08h0v.83a.09.09,0,0,1-.09.08H1.29a.09.09,0,0,1-.08-.08h0V1.32a.08.08,0,0,1,.08-.08ZM2,1.4H1.38v.67H2V1.4Zm-2-.16H.91A.08.08,0,0,1,1,1.32H1v.83a.09.09,0,0,1-.09.08H.08A.09.09,0,0,1,0,2.15H0V1.32a.08.08,0,0,1,.08-.08Zm.75.16H.17v.67H.83V1.4ZM2.5,0h.83a.09.09,0,0,1,.09.08h0V.91A.09.09,0,0,1,3.33,1H2.5A.09.09,0,0,1,2.42.91h0V.08A.09.09,0,0,1,2.5,0Zm.75.17H2.59V.83h.66V.17ZM1.29,0h.83a.09.09,0,0,1,.09.08h0V.91A.09.09,0,0,1,2.12,1H1.29A.09.09,0,0,1,1.21.91h0V.08A.09.09,0,0,1,1.29,0ZM2,.17H1.38V.83H2V.17ZM.83.17H.17V.83H.83V.17Z"/></g></g></svg>