<svg xmlns="http://www.w3.org/2000/svg" viewBox="0 0 2.46 3.47"><defs><style>.cls-1{fill:#a49897;}</style></defs><title>Режим изоляции</title><g id="Слой_2" data-name="Слой 2"><g id="Режим_изоляции" data-name="Режим изоляции"><path class="cls-1" d="M1.23,0a.94.94,0,0,1,.94.94,1,1,0,0,1-.28.67h0a1.9,1.9,0,0,1,.49.6h0a1,1,0,0,1,.08.39V2.9a.37.37,0,0,1-.07.2.25.25,0,0,1-.18.11H1.93v.13a.14.14,0,0,1-.14.13H.66a.13.13,0,0,1-.13-.13h0V3.21H.23A.25.25,0,0,1,.06,3.1.36.36,0,0,1,0,2.9V2.61a1,1,0,0,1,.08-.39,1.78,1.78,0,0,1,.49-.6h0A1,1,0,0,1,.28.94a1,1,0,0,1,1-.94ZM.64,2.94h0V2.57a.08.08,0,0,1,.08-.08.09.09,0,0,1,.08.08v.49h0V3.2h.85V3.08h0V2.57a.09.09,0,0,1,.08-.08.09.09,0,0,1,.09.08v.37h.35a.06.06,0,0,0,0,0V2.61a.72.72,0,0,0-.06-.29h0a1.84,1.84,0,0,0-.46-.54.92.92,0,0,1-.43.11.93.93,0,0,1-.44-.11,2,2,0,0,0-.46.54.71.71,0,0,0,0,.29v.33ZM1.23.27h0A.68.68,0,0,0,.56.94a.67.67,0,1,0,1.33,0A.66.66,0,0,0,1.23.27Z"/></g></g></svg>