<svg xmlns="http://www.w3.org/2000/svg" viewBox="0 0 2.93 3.48"><defs><style>.cls-1{fill:#a49897;}</style></defs><title>Режим изоляции</title><g id="Слой_2" data-name="Слой 2"><g id="Режим_изоляции" data-name="Режим изоляции"><path class="cls-1" d="M2.48,0A.09.09,0,0,1,2.6,0a.09.09,0,0,1,0,.12L2.51.23a1.52,1.52,0,0,1,.3.46,1.63,1.63,0,0,1,.12.62,1.59,1.59,0,0,1-.12.62,1.58,1.58,0,0,1-.35.53h0a1.58,1.58,0,0,1-.53.35h0a1.53,1.53,0,0,1-.48.11V3.2H2a.14.14,0,0,1,.14.14A.14.14,0,0,1,2,3.48H.65a.15.15,0,0,1-.14-.14A.14.14,0,0,1,.65,3.2h.53V2.92A1.53,1.53,0,0,1,.7,2.81a1.45,1.45,0,0,1-.47-.3L.15,2.6A.09.09,0,0,1,0,2.6a.09.09,0,0,1,0-.12l.3-.3A1.31,1.31,0,0,1,.38.39h0A1.35,1.35,0,0,1,1.31,0a1.27,1.27,0,0,1,.87.33L2.34.17h0L2.48,0ZM2.4.35h0L2.3.44a1.36,1.36,0,0,1,.33.87,1.3,1.3,0,0,1-.39.93h0a1.3,1.3,0,0,1-.92.37A1.3,1.3,0,0,1,.45,2.3l-.1.1a1.91,1.91,0,0,0,.41.26,1.46,1.46,0,0,0,1.11,0h0a1.52,1.52,0,0,0,.79-.79,1.46,1.46,0,0,0,0-1.11A1.59,1.59,0,0,0,2.4.35ZM2.05.58h0a1,1,0,0,0-.74-.3,1,1,0,0,0-.73.3h0a1,1,0,0,0-.3.73,1,1,0,0,0,1,1A1,1,0,0,0,2,2.05h0a1,1,0,0,0,.3-.74,1,1,0,0,0-.3-.73Z"/></g></g></svg>