<svg xmlns="http://www.w3.org/2000/svg" xmlns:xlink="http://www.w3.org/1999/xlink" viewBox="0 0 109.35 95"><defs><style>.cls-1{fill:url(#Безымянный_градиент_30);}.cls-2{fill:url(#Безымянный_градиент_8);}</style><linearGradient id="Безымянный_градиент_30" x1="30.36" y1="47.4" x2="67.3" y2="47.4" gradientUnits="userSpaceOnUse"><stop offset="0" stop-color="#ece0db"/><stop offset="1" stop-color="#c3d6d9"/></linearGradient><linearGradient id="Безымянный_градиент_8" y1="47.5" x2="109.35" y2="47.5" gradientUnits="userSpaceOnUse"><stop offset="0" stop-color="#f8f4f2"/><stop offset="1" stop-color="#ebf1fb"/></linearGradient></defs><title>Слой 1</title><g id="Слой_2" data-name="Слой 2"><g id="Слой_1-2" data-name="Слой 1"><path class="cls-1" d="M67.3,27.18,30.36,5.86V88.94L67.3,67.61l-35-20.21ZM34.41,12.86,59.22,27.18,34.41,41.51Zm0,40.43L59.22,67.61,34.41,81.93Z"/><path class="cls-2" d="M107.61,44.48,83.77,3,82,0H27.33L25.58,3,1.74,44.48,0,47.5l1.74,3L25.58,92l1.75,3H82l1.75-3,23.84-41.44,1.74-3Zm-5.49,2.6L69.31,28.14V6.06h9.21Zm-7.54.32L69.77,61.72V33.07ZM78.52,88.94H30.84L7,47.5,30.84,6.06H65.27V27.82L31.36,47.4,65.73,67.24,67,68l1.29-.74,34-19.63ZM64.26,33.07V61.72L39.45,47.4Z"/></g></g></svg>